<svg xmlns="http://www.w3.org/2000/svg" xmlns:xlink="http://www.w3.org/1999/xlink" version="1.1" x="0px" y="0px" viewBox="0 0 100 125" enable-background="new 0 0 100 100" xml:space="preserve"><g><path fill="none" d="M49.015,67.928c0.256,0.452,0.717,0.721,1.235,0.721h4.238v-5.115c-1.863,0.263-4.265,0.999-5.458,2.988   C48.768,66.958,48.763,67.483,49.015,67.928z"/><path fill="none" d="M48.35,35.485l-4.635-1.128c-0.039-0.01-0.08-0.015-0.119-0.015c-0.243,0-0.449,0.174-0.491,0.414   l-0.785,4.511c-0.027,0.153,0.008,0.288,0.103,0.402c0.159,0.188,0.432,0.246,0.653,0.107l5.42-3.383   c0.262-0.163,0.241-0.426,0.229-0.503C48.709,35.793,48.641,35.556,48.35,35.485z"/><path fill="none" d="M68.167,35.812c-1.233-0.955-2.516-0.937-3.921,0.055c-0.589,0.515-0.97,1.052-1.221,1.623   c-0.082,0.442-0.485,3.367,2.494,6.104c0.27,0.248,0.288,0.669,0.04,0.939c-0.131,0.143-0.31,0.215-0.49,0.215   c-0.161,0-0.322-0.058-0.45-0.175c-1.055-0.97-1.748-1.969-2.197-2.907c-0.127,1.699-0.436,3.58-1.838,5.641   c-0.206,0.304-0.62,0.383-0.924,0.176c-0.304-0.206-0.382-0.62-0.176-0.924c0.97-1.426,1.341-2.75,1.512-4.021   c-0.943-0.228-2.704-0.892-4.416-2.822c-2.172-2.449-4.588-7.393-4.465-17.232c-0.078,0.042-0.159,0.082-0.246,0.119   c-0.43,0.184-0.902,0.275-1.415,0.275c-0.76,0-1.608-0.201-2.537-0.604c-0.337-0.146-0.492-0.537-0.346-0.874   c0.146-0.337,0.537-0.492,0.874-0.346c1.176,0.509,2.17,0.626,2.876,0.336c0.519-0.213,0.762-0.589,0.845-0.746   c0.021-0.488,0.045-0.983,0.078-1.493l0.471-5.258c-0.407,0.132-0.895,0.239-1.413,0.239c-0.709,0-1.473-0.199-2.159-0.804   c-0.275-0.243-0.302-0.663-0.059-0.938c0.243-0.275,0.663-0.301,0.938-0.059c1.035,0.913,2.508,0.253,2.962,0.013   c0.556-1.054,1.601-3.59,0.921-4.966c-0.271-0.549-0.815-0.875-1.662-0.997c-1.386-0.199-2.537,0.164-3.424,1.081   c-1.748,1.807-3.365,6.575-1.147,19.025c0.034,0.192-0.018,0.39-0.143,0.541c-0.147,0.177-1.483,1.727-3.09,1.465   c-1.023-0.167-1.834-1.009-2.412-2.504c-0.01-0.026-0.018-0.052-0.025-0.078c-0.45-1.799-0.831-6.935-0.988-9.285   c-0.647,0.315-1.608,0.599-2.988,0.599c-0.236,0-0.484-0.008-0.744-0.026c-0.366-0.025-0.643-0.342-0.618-0.709   c0.025-0.366,0.342-0.643,0.709-0.618c2.469,0.169,3.477-0.664,3.672-0.853c0.393-0.828,1.147-3.001,0.446-4.295   c-0.359-0.662-1.065-1.047-2.159-1.174c-0.691-0.08-1.337,0.003-1.87,0.241c-3.175,1.422-2.132,6.866-1.359,9.643   c0.641-0.019,1.67,0.072,2.546,0.709c0.828,0.602,1.325,1.535,1.475,2.772c0.194,1.592-0.291,3.17-1.266,4.311l1.331,2.399   c0.495,0.893,0.195,1.999-0.685,2.519c-0.293,0.173-0.618,0.261-0.948,0.261c-0.168,0-0.337-0.023-0.504-0.069   c-0.115-0.032-0.225-0.075-0.329-0.126c-0.108,0.139-0.242,0.274-0.41,0.392c-0.344,0.241-0.752,0.362-1.221,0.362   c-0.258,0-0.533-0.037-0.826-0.11c-0.356-0.089-0.573-0.45-0.484-0.806c0.089-0.356,0.451-0.572,0.806-0.484   c0.299,0.075,0.708,0.127,0.961-0.051c0.123-0.086,0.194-0.215,0.233-0.317l-1.256-2.323c-0.719,0.01-1.443-0.17-2.13-0.546   c-0.322-0.176-0.44-0.581-0.263-0.903c0.177-0.322,0.581-0.44,0.903-0.263c1.008,0.553,2.134,0.499,3.09-0.149   c1.21-0.819,1.869-2.365,1.677-3.938c-0.104-0.852-0.417-1.475-0.93-1.852c-0.748-0.549-1.753-0.474-2.048-0.437   c-0.574,0.309-3.919,2.244-4.74,5.688c-0.563,2.36,0.162,4.962,2.147,7.737c0.897-0.191,2.886-0.461,4.305,0.494   c0.877,0.59,1.38,1.519,1.496,2.762c0.215,2.307-0.921,3.321-1.617,3.721c-0.455,0.261-0.961,0.411-1.484,0.473   c-0.062,0.428,0.007,1.174,0.935,1.898c0.289,0.226,0.341,0.644,0.115,0.933c-0.131,0.168-0.327,0.255-0.524,0.255   c-0.143,0-0.287-0.046-0.409-0.141c-1.243-0.971-1.517-2.117-1.449-2.97c-0.974-0.135-1.912-0.51-2.601-1.003   c-0.299-0.214-0.367-0.629-0.154-0.928c0.214-0.298,0.629-0.367,0.928-0.153c1.182,0.847,2.968,1.063,3.981,0.482   c0.745-0.427,1.066-1.25,0.955-2.445c-0.078-0.837-0.377-1.42-0.914-1.782c-1.041-0.701-2.799-0.436-3.529-0.241   c-0.484,0.402-2.896,2.589-3.207,6.454c-0.369,4.58,2.205,9.753,7.65,15.374c0.005,0.005,0.009,0.012,0.014,0.017   c0.005,0.005,0.011,0.01,0.016,0.015c0.044,0.049,0.766,0.81,2.723,0.81c0.367,0,0.665,0.298,0.665,0.665s-0.298,0.665-0.665,0.665   c-1.138,0-1.975-0.219-2.565-0.478v0.866l3.047,1.892c2.405,1.494,3.841,4.075,3.841,6.906v2.761c0,1.06-0.862,1.922-1.922,1.922   c-1.062,0-1.924-0.862-1.924-1.922v-1.988c0-0.081-0.051-0.159-0.111-0.171c-0.065-0.013-0.115,0.021-0.135,0.041   c-0.012,0.012-0.038,0.046-0.038,0.099v8.741c0,1.868-1.091,3.553-2.757,4.337v6.643l2.432-1.351   c0.277-0.154,0.625-0.091,0.83,0.151l3.131,3.693l2.077-3.153c0.114-0.173,0.303-0.283,0.509-0.298   c0.207-0.015,0.409,0.069,0.545,0.225l4.258,4.854l2.937-3.247V70.112h-4.371c-1.051,0-1.988-0.547-2.507-1.463   c-0.515-0.909-0.503-1.985,0.033-2.879c1.593-2.656,4.754-3.478,6.845-3.726v-1.117c-0.58,0.184-1.377,0.363-2.289,0.363   c-0.937,0-1.994-0.189-3.059-0.757c-0.324-0.173-0.447-0.575-0.274-0.899c0.173-0.324,0.575-0.447,0.899-0.274   c2.391,1.275,4.847,0.113,5.06,0.007c0.411-0.257,10.204-6.491,14.673-17.959C70.416,39.391,69.814,37.09,68.167,35.812z    M46.666,56.527c-0.009,0-0.017,0-0.026,0c-0.355,0-0.65-0.281-0.664-0.639c-0.262-6.817-4.471-7.821-4.513-7.831   c-0.359-0.079-0.585-0.433-0.506-0.792c0.079-0.359,0.434-0.586,0.792-0.506c0.214,0.047,5.255,1.245,5.556,9.078   C47.319,56.204,47.033,56.513,46.666,56.527z M43.851,41.018c-0.315,0.197-0.674,0.301-1.037,0.301c0,0,0,0,0,0   c-0.581,0-1.132-0.258-1.51-0.708c-0.375-0.446-0.526-1.012-0.425-1.594l0.785-4.512c0.164-0.942,0.976-1.626,1.932-1.626   c0.156,0,0.313,0.019,0.465,0.056l4.635,1.128c0.781,0.19,1.345,0.801,1.473,1.594s-0.216,1.551-0.898,1.976L43.851,41.018z    M52.069,37.68c-0.037,0.051-2.994,4.22-1.829,10.944c0.063,0.362-0.18,0.706-0.542,0.768c-0.038,0.007-0.077,0.01-0.114,0.01   c-0.317,0-0.598-0.228-0.654-0.551c-1.269-7.319,1.93-11.772,2.067-11.958c0.218-0.296,0.634-0.359,0.929-0.142   C52.222,36.969,52.286,37.385,52.069,37.68z"/><path fill="none" d="M38.08,30.791c0.071,0.131,0.189,0.225,0.332,0.264c0.143,0.04,0.293,0.02,0.421-0.056   c0.255-0.15,0.342-0.471,0.198-0.729l-1.185-2.136c-0.304,0.202-0.619,0.362-0.942,0.482L38.08,30.791z"/><path fill="none" d="M42.864,71.974c0.255,0,0.462-0.206,0.462-0.46v-2.761c0-2.321-1.177-4.438-3.149-5.663l-2.142-1.33v19.002   c0.732-0.63,1.161-1.556,1.161-2.527v-8.741c0-0.43,0.167-0.833,0.469-1.136c0.38-0.375,0.92-0.54,1.442-0.44   c0.752,0.145,1.297,0.821,1.297,1.607v1.988C42.404,71.768,42.61,71.974,42.864,71.974z"/><path fill="#000000" d="M68.982,34.762c-1.198-0.928-3.131-1.674-5.534,0.042c-0.017,0.012-0.033,0.025-0.049,0.038   c-2.024,1.75-2.131,3.714-2.245,5.794c-0.01,0.188-0.021,0.377-0.033,0.566c-0.849-0.237-2.403-0.908-3.903-2.793   c-2.058-2.586-4.36-8.011-3.646-19.153l0.558-6.226c0.413-0.77,2.043-4.061,0.971-6.236c-0.473-0.959-1.37-1.54-2.666-1.726   c-1.807-0.26-3.386,0.249-4.569,1.472c-2.825,2.922-3.349,9.602-1.558,19.856c-0.369,0.36-1.053,0.886-1.652,0.787   c-0.641-0.105-1.097-0.937-1.371-1.633c-0.5-2.064-0.935-8.864-1.006-10.024c0.323-0.711,1.445-3.472,0.386-5.431   c-0.572-1.058-1.64-1.686-3.176-1.865c-0.929-0.109-1.817,0.012-2.567,0.348c-3.02,1.352-3.755,5.336-2.088,11.243   c-1.195,0.709-4.185,2.794-5.035,6.334c-0.653,2.718,0.109,5.644,2.263,8.705c-0.968,0.907-3.006,3.24-3.322,7.022   c-0.412,4.932,2.222,10.396,7.83,16.244v2.2V82.13v8.215c0,0.236,0.125,0.453,0.328,0.573c0.203,0.12,0.454,0.123,0.66,0.008   l2.943-1.635l3.352,3.954c0.135,0.16,0.34,0.247,0.547,0.233c0.209-0.012,0.4-0.123,0.515-0.298l2.085-3.166l4.174,4.759   c0.125,0.143,0.305,0.225,0.495,0.226c0.002,0,0.003,0,0.005,0c0.188,0,0.367-0.079,0.493-0.219l3.61-3.99   c0.11-0.122,0.172-0.281,0.172-0.446V69.447v-6.802v-2.333c1.816-1.187,10.617-7.378,14.92-18.421   C71.867,39.329,71.09,36.398,68.982,34.762z M69.631,41.408c-4.469,11.469-14.262,17.702-14.673,17.959   c-0.213,0.106-2.668,1.268-5.06-0.007c-0.324-0.173-0.727-0.05-0.899,0.274c-0.173,0.324-0.05,0.727,0.274,0.899   c1.064,0.568,2.121,0.757,3.059,0.757c0.912,0,1.71-0.179,2.289-0.363v1.117c-2.091,0.248-5.253,1.07-6.845,3.726   c-0.536,0.893-0.548,1.969-0.033,2.879c0.519,0.916,1.456,1.463,2.507,1.463h4.371v19.978l-2.937,3.247l-4.258-4.854   c-0.137-0.156-0.338-0.24-0.545-0.225c-0.207,0.014-0.395,0.124-0.509,0.298l-2.077,3.153l-3.131-3.693   c-0.205-0.242-0.553-0.305-0.83-0.151l-2.432,1.351v-6.643c1.666-0.784,2.757-2.469,2.757-4.337v-8.741   c0-0.053,0.026-0.087,0.038-0.099c0.02-0.02,0.07-0.054,0.135-0.041c0.06,0.011,0.111,0.09,0.111,0.171v1.988   c0,1.06,0.862,1.922,1.924,1.922c1.06,0,1.922-0.862,1.922-1.922v-2.761c0-2.831-1.436-5.412-3.841-6.906l-3.047-1.892v-0.866   c0.591,0.259,1.427,0.478,2.565,0.478c0.367,0,0.665-0.298,0.665-0.665s-0.298-0.665-0.665-0.665c-1.957,0-2.679-0.762-2.723-0.81   c-0.005-0.006-0.011-0.01-0.016-0.015c-0.005-0.006-0.009-0.012-0.014-0.017c-5.445-5.621-8.019-10.793-7.65-15.374   c0.311-3.865,2.723-6.052,3.207-6.454c0.73-0.195,2.488-0.46,3.529,0.241c0.537,0.362,0.837,0.945,0.914,1.782   c0.111,1.195-0.21,2.017-0.955,2.445c-1.013,0.581-2.799,0.365-3.981-0.482c-0.299-0.213-0.714-0.145-0.928,0.153   c-0.214,0.299-0.145,0.714,0.154,0.928c0.689,0.493,1.627,0.868,2.601,1.003c-0.068,0.853,0.206,1.999,1.449,2.97   c0.122,0.095,0.266,0.141,0.409,0.141c0.198,0,0.393-0.088,0.524-0.255c0.226-0.289,0.175-0.707-0.115-0.933   c-0.928-0.725-0.997-1.471-0.935-1.898c0.523-0.062,1.029-0.212,1.484-0.473c0.696-0.399,1.831-1.414,1.617-3.721   c-0.116-1.242-0.619-2.172-1.496-2.762c-1.419-0.955-3.408-0.685-4.305-0.494c-1.985-2.775-2.71-5.377-2.147-7.737   c0.821-3.444,4.166-5.379,4.74-5.688c0.295-0.036,1.3-0.112,2.048,0.437c0.514,0.377,0.826,1,0.93,1.852   c0.191,1.573-0.467,3.118-1.677,3.938c-0.956,0.648-2.082,0.702-3.09,0.149c-0.322-0.177-0.726-0.059-0.903,0.263   c-0.177,0.322-0.059,0.726,0.263,0.903c0.686,0.377,1.411,0.556,2.13,0.546l1.256,2.323c-0.04,0.102-0.11,0.231-0.233,0.317   c-0.253,0.177-0.662,0.126-0.961,0.051c-0.356-0.088-0.717,0.128-0.806,0.484c-0.089,0.356,0.128,0.717,0.484,0.806   c0.293,0.073,0.569,0.11,0.826,0.11c0.468,0,0.877-0.121,1.221-0.362c0.168-0.118,0.302-0.253,0.41-0.392   c0.104,0.051,0.214,0.094,0.329,0.126c0.167,0.046,0.336,0.069,0.504,0.069c0.33,0,0.655-0.088,0.948-0.261   c0.879-0.519,1.18-1.626,0.685-2.519l-1.331-2.399c0.975-1.142,1.46-2.719,1.266-4.311c-0.15-1.237-0.647-2.169-1.475-2.772   c-0.876-0.637-1.905-0.728-2.546-0.709c-0.773-2.778-1.816-8.222,1.359-9.643c0.533-0.238,1.179-0.321,1.87-0.241   c1.094,0.128,1.8,0.512,2.159,1.174c0.701,1.294-0.054,3.467-0.446,4.295c-0.195,0.189-1.203,1.022-3.672,0.853   c-0.367-0.026-0.684,0.252-0.709,0.618c-0.025,0.366,0.252,0.684,0.618,0.709c0.26,0.018,0.508,0.026,0.744,0.026   c1.379,0,2.34-0.284,2.988-0.599c0.157,2.351,0.538,7.486,0.988,9.285c0.007,0.027,0.015,0.053,0.025,0.078   c0.578,1.495,1.389,2.338,2.412,2.504c1.607,0.262,2.943-1.287,3.09-1.465c0.125-0.15,0.177-0.348,0.143-0.541   C45.457,14.037,47.075,9.27,48.822,7.463c0.886-0.916,2.037-1.28,3.424-1.081c0.847,0.122,1.391,0.448,1.662,0.997   c0.68,1.377-0.366,3.913-0.921,4.966c-0.453,0.239-1.927,0.899-2.962-0.013c-0.275-0.243-0.695-0.217-0.938,0.059   c-0.243,0.275-0.217,0.695,0.059,0.938c0.685,0.605,1.449,0.804,2.159,0.804c0.518,0,1.006-0.107,1.413-0.239l-0.471,5.258   c-0.033,0.51-0.057,1.005-0.078,1.493c-0.083,0.157-0.325,0.533-0.845,0.746c-0.706,0.289-1.7,0.173-2.876-0.336   c-0.337-0.146-0.728,0.009-0.874,0.346c-0.146,0.337,0.009,0.728,0.346,0.874c0.929,0.403,1.777,0.604,2.537,0.604   c0.513,0,0.985-0.092,1.415-0.275c0.087-0.037,0.168-0.077,0.246-0.119c-0.124,9.839,2.292,14.783,4.465,17.232   c1.712,1.93,3.473,2.594,4.416,2.822c-0.171,1.271-0.542,2.595-1.512,4.021c-0.206,0.304-0.128,0.717,0.176,0.924   c0.304,0.207,0.717,0.128,0.924-0.176c1.402-2.061,1.711-3.942,1.838-5.641c0.45,0.939,1.142,1.938,2.197,2.907   c0.128,0.117,0.289,0.175,0.45,0.175c0.18,0,0.359-0.072,0.49-0.215c0.248-0.27,0.231-0.691-0.04-0.939   c-2.979-2.737-2.576-5.661-2.494-6.104c0.251-0.571,0.631-1.108,1.221-1.623c1.405-0.992,2.688-1.01,3.921-0.055   C69.814,37.09,70.416,39.391,69.631,41.408z M54.487,63.534v5.115h-4.238c-0.517,0-0.979-0.27-1.235-0.721   c-0.252-0.445-0.246-0.97,0.015-1.406C50.222,64.533,52.624,63.797,54.487,63.534z M41.107,67.919   c-0.522-0.1-1.063,0.065-1.442,0.44c-0.303,0.302-0.469,0.706-0.469,1.136v8.741c0,0.971-0.43,1.897-1.161,2.527V61.76l2.142,1.33   c1.972,1.224,3.149,3.341,3.149,5.663v2.761c0,0.254-0.207,0.46-0.462,0.46c-0.254,0-0.46-0.206-0.46-0.46v-1.988   C42.404,68.74,41.858,68.064,41.107,67.919z M39.03,30.27c0.143,0.259,0.056,0.579-0.198,0.729   c-0.128,0.076-0.277,0.096-0.421,0.056c-0.143-0.04-0.261-0.134-0.332-0.264l-1.176-2.175c0.323-0.12,0.638-0.279,0.942-0.482   L39.03,30.27z"/><path fill="#000000" d="M50.997,36.894c-0.137,0.186-3.336,4.638-2.067,11.958c0.056,0.323,0.337,0.551,0.654,0.551   c0.038,0,0.076-0.003,0.114-0.01c0.362-0.063,0.604-0.407,0.542-0.768c-1.165-6.724,1.792-10.893,1.829-10.944   c0.217-0.296,0.153-0.711-0.142-0.928C51.631,36.535,51.215,36.598,50.997,36.894z"/><path fill="#000000" d="M41.749,46.759c-0.358-0.08-0.713,0.148-0.792,0.506c-0.079,0.359,0.148,0.713,0.506,0.792   c0.042,0.009,4.251,1.013,4.513,7.831c0.014,0.358,0.309,0.639,0.664,0.639c0.009,0,0.017,0,0.026,0   c0.367-0.014,0.653-0.323,0.639-0.69C47.004,48.004,41.963,46.806,41.749,46.759z"/><path fill="#000000" d="M50.169,35.659c-0.128-0.793-0.692-1.404-1.473-1.594l-4.635-1.128c-0.153-0.037-0.309-0.056-0.465-0.056   c-0.955,0-1.768,0.684-1.932,1.626l-0.785,4.512c-0.101,0.581,0.05,1.147,0.425,1.594c0.378,0.45,0.929,0.708,1.51,0.708   c0,0,0,0,0,0c0.363,0,0.721-0.104,1.037-0.301l5.42-3.383C49.952,37.21,50.296,36.452,50.169,35.659z M48.496,36.394l-5.42,3.383   c-0.222,0.139-0.494,0.081-0.653-0.107c-0.095-0.114-0.13-0.249-0.103-0.402l0.785-4.511c0.042-0.24,0.248-0.414,0.491-0.414   c0.04,0,0.08,0.005,0.119,0.015l4.635,1.128c0.291,0.071,0.359,0.307,0.375,0.406C48.737,35.968,48.758,36.231,48.496,36.394z"/></g><text x="0" y="115" fill="#000000" font-size="5px" font-weight="bold" font-family="'Helvetica Neue', Helvetica, Arial-Unicode, Arial, Sans-serif">Created by Valery</text><text x="0" y="120" fill="#000000" font-size="5px" font-weight="bold" font-family="'Helvetica Neue', Helvetica, Arial-Unicode, Arial, Sans-serif">from the Noun Project</text></svg>